<svg width="67" height="36" viewBox="0 0 67 36" fill="none" xmlns="http://www.w3.org/2000/svg">
<rect width="4" height="22" rx="2" transform="matrix(-1 0 0 1 4 14)" fill="#385A44"/>
<rect width="4" height="30" rx="2" transform="matrix(-1 0 0 1 11 6)" fill="#385A44"/>
<rect width="4" height="16" rx="2" transform="matrix(-1 0 0 1 18 20)" fill="#385A44"/>
<rect width="4" height="20" rx="2" transform="matrix(-1 0 0 1 25 16)" fill="#385A44"/>
<rect width="4" height="26" rx="2" transform="matrix(-1 0 0 1 32 10)" fill="#385A44"/>
<rect width="4" height="10" rx="2" transform="matrix(-1 0 0 1 39 26)" fill="#385A44"/>
<rect width="4" height="5" rx="2" transform="matrix(-1 0 0 1 46 31)" fill="#385A44"/>
<rect width="4" height="31" rx="2" transform="matrix(-1 0 0 1 53 5)" fill="#385A44"/>
<rect width="4" height="36" rx="2" transform="matrix(-1 0 0 1 60 0)" fill="#385A44"/>
<rect width="4" height="21" rx="2" transform="matrix(-1 0 0 1 67 15)" fill="#385A44"/>
</svg>
